<svg xmlns:xlink="http://www.w3.org/1999/xlink" xmlns="http://www.w3.org/2000/svg" viewBox="0 0 189.77 44.69" width="300"  height="71" ><path d="M186.75,13a10.58,10.58,0,0,0-7.62-3.25,10.69,10.69,0,0,0-2.87.4,10.37,10.37,0,0,0-3.83,2.05l-.37.3c-.28.23-.55.48-.82.74l-.87.87V1a.94.94,0,1,0-1.88,0V16.43s0,0,0,.05a.85.85,0,0,0,.06.31,1,1,0,0,0,.51.51.81.81,0,0,0,.31.06h.1a.81.81,0,0,0,.31-.06,1,1,0,0,0,.31-.21l2.48-2.48q.31-.31.66-.6l.39-.32A8.55,8.55,0,0,1,176.77,12a8.9,8.9,0,0,1,2.36-.32,8.8,8.8,0,0,1,8.56,10.63A8.55,8.55,0,0,1,180.91,29a8.77,8.77,0,0,1-6.54-1.23.7.7,0,0,1-.12-1.08.68.68,0,0,1,.85-.1,6.43,6.43,0,0,0,3.16,1.15,3.74,3.74,0,0,0,3.82-2.92.88.88,0,0,0,.06-.28s0-.09,0-.13,0-.06,0-.08A3.15,3.15,0,0,0,181.07,22a3.45,3.45,0,0,0-1.47-.76,3.31,3.31,0,0,0-1.32-.11h-.09a3.47,3.47,0,0,0-1.95,1l-4.53,4.48-.1.07s0,.06-.06.09l-.64.63a6,6,0,0,1-10.24-4.27V1a.94.94,0,1,0-1.88,0v9.48A13.54,13.54,0,0,0,147.05,3.7L136,4.05a.93.93,0,0,0-.91.93v6.13a11.52,11.52,0,0,0-1.65,1.13l-.37.3c-.28.23-.56.48-.82.74l-.87.87V1a.95.95,0,1,0-1.89,0V16.43s0,0,0,.05a.87.87,0,0,0,.07.31.91.91,0,0,0,.51.51.77.77,0,0,0,.3.06h.11a.77.77,0,0,0,.3-.06.85.85,0,0,0,.31-.21l2.47-2.47a8,8,0,0,1,.69-.62l.37-.31A8.83,8.83,0,0,1,138,11.94a9.1,9.1,0,0,1,2.15-.26,8.75,8.75,0,0,1,8.72,8.65l0,1s0,.06,0,.09a1.16,1.16,0,0,0,0,.18.89.89,0,0,0,.08.17l0,.08.09.1.05,0a.7.7,0,0,0,.25.17l.06,0a1.13,1.13,0,0,0,.32.06h.07a.89.89,0,0,0,.28-.07.31.31,0,0,0,.1-.05l.1,0a7,7,0,0,0,1.08-.88A5.78,5.78,0,0,0,153,17.24a7.65,7.65,0,0,0-7.86-7.38h-3.49s-.09,0-.14,0a10.24,10.24,0,0,0-1.36-.1,10.37,10.37,0,0,0-2.61.33c-.18,0-.37.11-.55.17V5.9l10.08-.31a11.63,11.63,0,1,1,0,23.26h-.41a9.74,9.74,0,0,0,1.13-1,.94.94,0,1,0-1.35-1.31,8.89,8.89,0,0,1-2.69,1.9,8.78,8.78,0,0,1-8.37-.64.7.7,0,0,1-.11-1.08h0a.68.68,0,0,1,.85-.1,6.37,6.37,0,0,0,3.15,1.15,3.76,3.76,0,0,0,3.82-2.9.82.82,0,0,0,.07-.3s0-.09,0-.14v-.07A3.18,3.18,0,0,0,142.07,22a3.51,3.51,0,0,0-1.47-.76,3.39,3.39,0,0,0-1.34-.11h-.07a3.45,3.45,0,0,0-1.95,1l-4.53,4.48a.41.41,0,0,0-.11.07l-.06.09-.64.63a6,6,0,0,1-10.23-4.27V1a.95.95,0,1,0-1.89,0V5.3l-8,4a9.6,9.6,0,0,0-2.75-7A9.29,9.29,0,0,0,103.31.13l-.06,0c-.36,0-.71,0-1.06,0A15.51,15.51,0,0,0,100.33,31a17.23,17.23,0,0,0,2,.12,14.26,14.26,0,0,0,9-3l8.45-7v2.12A7.76,7.76,0,0,0,127.41,31h0a8.26,8.26,0,0,0,5.86-2.32l0-.05a10.54,10.54,0,0,0,6.81,2.47,10.67,10.67,0,0,0,3.8-.71,13.65,13.65,0,0,0,3.12.37,13.51,13.51,0,0,0,11.77-6.89A7.88,7.88,0,0,0,166.4,31h.42a8,8,0,0,0,5.47-2.33l0,0A10.63,10.63,0,0,0,186.75,13Zm-77.14-6A5.1,5.1,0,1,1,104.52,2,5.1,5.1,0,0,1,109.61,7.07Zm10.17,11.59c-3.45,2.86-9.47,7.86-9.63,8a12.83,12.83,0,0,1-9.73,2.46A13.63,13.63,0,0,1,92,6.49,13.89,13.89,0,0,1,96.28,3.3c-.18.19-.36.39-.53.59A10.53,10.53,0,0,0,97.42,19l.07.06.1.08.2.14a9,9,0,0,0,2.94,1.47,10.77,10.77,0,0,0,1.79.39c3,.37,5.15-1,7-2.5.47-.36,1.17-1,2.09-1.8a1,1,0,0,0,.3-.7v-4.8l7.82-3.91Z" style="fill:#fff"/><path d="M70.87,26.08a10.31,10.31,0,0,1-7.35,3,6.88,6.88,0,0,1-7-6.4,3.35,3.35,0,0,0-1.35-2.64,3.52,3.52,0,0,0-4.55.38l-9.15,9.1a.92.92,0,0,0,.65,1.57h0a.91.91,0,0,0,.64-.27L52,21.77a1.62,1.62,0,0,1,1.75-.37,1.45,1.45,0,0,1,.94,1.33A8.79,8.79,0,0,0,63.52,31a12.18,12.18,0,0,0,8.68-3.58L87,12.56a15.15,15.15,0,0,1,1.45-4.13Z" style="fill:#fff"/><path d="M14.09,18.44c.22-.22.45-.42.69-.62l.37-.3a8.56,8.56,0,0,1,3.36-1.75,9,9,0,0,1,2.14-.26,8.65,8.65,0,0,1,5.43,1.92v0l-12,12.09a.92.92,0,0,0,.65,1.56h.14a1,1,0,0,0,.65-.27L27.94,18.27a.63.63,0,0,0,.12-.1l.12-.14,4.43-4.5a3.45,3.45,0,0,0,1-1.95v0s0,0,0,0a3.4,3.4,0,0,0-.1-1.34,3.53,3.53,0,0,0-.77-1.47,3.14,3.14,0,0,0-2.36-1.06h-.21a.87.87,0,0,0-.28.05,3.76,3.76,0,0,0-2.92,3.83,6.45,6.45,0,0,0,1.16,3.16.68.68,0,0,1-.1.84h0a.67.67,0,0,1-1.09-.11A8.75,8.75,0,1,1,43,10.64,9,9,0,0,1,42.7,13,8.63,8.63,0,0,1,41,16.15l-.31.37a6.29,6.29,0,0,1-.43.47L27.76,29.55a.92.92,0,0,0,.65,1.56h0a.91.91,0,0,0,.64-.27L41.42,18.53l.19-.21,3.51-3.51a8,8,0,0,1,.69-.62l.37-.31a8.48,8.48,0,0,1,5.5-2h0a7,7,0,0,1,7,5.13c.06.18,1.38,4.38,4,4.38a4.56,4.56,0,0,0,3.58-1.69l9.91-9.87a.83.83,0,0,0-.52-1.43,1.77,1.77,0,0,0-1.25.52l-9.24,9.21-.25.25a2.75,2.75,0,0,1-2.23,1.13c-.76,0-1.77-1.81-2.17-3.07A8.86,8.86,0,0,0,51.68,10h0A10.26,10.26,0,0,0,45,12.43l-.27.22a10.36,10.36,0,0,0,.2-2A10.56,10.56,0,0,0,41.66,3,10.46,10.46,0,0,0,34,0,10.58,10.58,0,0,0,23.62,10.64a10.78,10.78,0,0,0,.63,3.63,10.43,10.43,0,0,0-3.6-.65,10.76,10.76,0,0,0-2.6.32A10.6,10.6,0,0,0,14,16.06l-.36.3c-.29.24-.56.49-.82.75L.27,29.54a.92.92,0,0,0,.65,1.57h.13a.93.93,0,0,0,.65-.27Z" style="fill:#fff"/><path d="M.66,44.57V37.9h2l1.21,4.55,1.2-4.55h2v6.67H5.86V39.32L4.53,44.57H3.23L1.91,39.32v5.25Z" style="fill:#fff"/><path d="M19.32,44.57l2.56-6.67h.95l2.74,6.67h-1l-.78-2H21l-.73,2Zm1.92-2.74h2.27L22.81,40c-.21-.56-.37-1-.47-1.38A9.62,9.62,0,0,1,22,39.87Z" style="fill:#fff"/><path d="M38.19,44.57V37.9h.88v2.74h3.47V37.9h.89v6.67h-.89V41.42H39.07v3.15Z" style="fill:#fff"/><path d="M56.06,44.57l2.56-6.67h1l2.73,6.67h-1l-.78-2H57.73l-.74,2ZM58,41.83h2.26L59.55,40q-.31-.84-.48-1.38a7.3,7.3,0,0,1-.36,1.27Z" style="fill:#fff"/><path d="M74.89,44.57V37.9h.91l3.5,5.24V37.9h.85v6.67h-.91l-3.5-5.24v5.24Z" style="fill:#fff"/><path d="M92.82,42.4l1.31-.13a1.62,1.62,0,0,0,.48,1,1.41,1.41,0,0,0,1,.31,1.56,1.56,0,0,0,1-.27.85.85,0,0,0,.32-.65.6.6,0,0,0-.13-.4,1.17,1.17,0,0,0-.49-.29c-.16-.06-.52-.15-1.08-.29A3.69,3.69,0,0,1,93.67,41a1.75,1.75,0,0,1-.61-1.35,1.66,1.66,0,0,1,.29-1,1.82,1.82,0,0,1,.83-.68,3.41,3.41,0,0,1,1.31-.23,2.84,2.84,0,0,1,1.89.55,1.93,1.93,0,0,1,.67,1.47l-1.35.06a1.12,1.12,0,0,0-.37-.74,1.35,1.35,0,0,0-.85-.22,1.55,1.55,0,0,0-.92.24.48.48,0,0,0-.21.41.5.5,0,0,0,.2.41,3.51,3.51,0,0,0,1.23.44,7.25,7.25,0,0,1,1.46.48,2,2,0,0,1,.74.68,2.07,2.07,0,0,1,.26,1.07,1.89,1.89,0,0,1-.32,1.07,2,2,0,0,1-.9.75,3.82,3.82,0,0,1-1.45.24,2.88,2.88,0,0,1-1.94-.59A2.46,2.46,0,0,1,92.82,42.4Z" style="fill:#fff"/><path d="M111,44.57V37.9h4.83v.78h-4v2h3.7v.78h-3.7v2.27H116v.79Z" style="fill:#fff"/><path d="M129.11,44.57V37.9h3a3.91,3.91,0,0,1,1.35.18,1.53,1.53,0,0,1,.75.63,1.93,1.93,0,0,1,.27,1,1.64,1.64,0,0,1-.46,1.19,2.24,2.24,0,0,1-1.42.62,2.68,2.68,0,0,1,.54.34,4.74,4.74,0,0,1,.73.88L135,44.57h-1.11L133,43.18c-.25-.4-.47-.7-.63-.92a2,2,0,0,0-.45-.44,1.18,1.18,0,0,0-.4-.18,2.91,2.91,0,0,0-.5,0h-1v3Zm.88-3.73h1.9a3,3,0,0,0,1-.12,1,1,0,0,0,.51-.4,1.11,1.11,0,0,0,.18-.6,1,1,0,0,0-.34-.78,1.58,1.58,0,0,0-1.09-.31H130Z" style="fill:#fff"/><path d="M149.46,44.57l-2.59-6.67h1l1.73,4.84c.14.39.26.76.35,1.1.11-.37.23-.73.36-1.1l1.81-4.84h.9l-2.62,6.67Z" style="fill:#fff"/><path d="M165.68,44.57V37.9h4.83v.78h-3.95v2h3.7v.78h-3.7v2.27h4.1v.79Z" style="fill:#fff"/><path d="M183.79,44.57V37.9h3a3.91,3.91,0,0,1,1.35.18,1.53,1.53,0,0,1,.75.63,1.93,1.93,0,0,1,.27,1,1.64,1.64,0,0,1-.46,1.19,2.24,2.24,0,0,1-1.42.62,2.68,2.68,0,0,1,.54.34,4.74,4.74,0,0,1,.73.88l1.16,1.82h-1.11l-.88-1.39c-.26-.4-.48-.7-.64-.92a2,2,0,0,0-.45-.44,1.18,1.18,0,0,0-.4-.18,2.85,2.85,0,0,0-.49,0h-1v3Zm.88-3.73h1.9a3,3,0,0,0,1-.12,1.11,1.11,0,0,0,.52-.4,1.19,1.19,0,0,0,.17-.6,1,1,0,0,0-.34-.78,1.58,1.58,0,0,0-1.09-.31h-2.11Z" style="fill:#fff"/></svg>